PathFileType	4	(X/Y/Z)	D:\TRACE\v60_Jaco2_6-2-23\BothDRS_Motion3_7-v60.trc
DataRate	CameraRate	NumFrames	NumMarkers	Units	OrigDataRate	OrigDataStartFrame	OrigNumFrames
100.00	100.00	      14	9	mm	100.00	876	      7000
Frame#	Time	front left toe			Front right toe			aft left toe			aft right toe			Arm			FL body			FR body			AL Body			AR Body			
		X1	Y1	Z1	X2	Y2	Z2	X3	Y3	Z3	X4	Y4	Z4	X5	Y5	Z5	X6	Y6	Z6	X7	Y7	Z7	X8	Y8	Z8	X9	Y9	Z9	

876	8.750	-71.63382	1.67472	-238.83002	316.24689	42.81414	-268.83838	-84.31427	73.77021	337.15909	276.73877	28.55603	396.74423	191.01846	1123.87085	-512.18683	45.38580	499.44440	-434.19595	202.74159	489.93326	-427.46234	15.99160	587.53198	505.96548	167.73982	568.62567	512.49420	
877	8.760	-71.46844	1.68678	-238.84740	316.93802	34.46680	-270.57339	-82.38290	64.64069	335.72839	276.83136	28.42781	396.66605	191.19420	1123.99768	-513.59387	45.28692	499.65793	-436.16278	203.99643	489.62054	-428.98996	17.27150	587.32495	504.58832	169.41962	568.21472	510.94382	
878	8.770	-71.29990	1.61679	-238.81232	317.73929	26.08468	-271.95496	-80.15109	56.04508	334.67902	276.86868	28.06876	396.54773	191.18198	1124.01892	-514.75159	46.26202	499.09598	-436.97842	203.45534	489.61240	-430.56628	18.52277	587.10138	503.22232	171.28917	567.77625	509.30664	
879	8.780	-71.12225	1.61776	-238.84274	318.19531	18.72982	-273.04987	-78.96352	49.04911	334.06061	276.97162	27.77817	396.44083	191.04282	1124.36084	-515.75726	46.31698	498.99411	-438.76883	203.65843	489.61484	-432.61044	20.51917	586.55536	501.84537	172.05159	567.72809	507.60272	
880	8.790	-71.00796	1.74309	-238.83730	319.27509	12.70528	-274.02020	-78.21685	43.04156	333.08652	276.78644	26.91671	395.42706	190.79277	1124.46997	-517.27472	46.86712	498.87088	-440.35718	205.41002	489.07822	-434.29260	22.12173	586.26379	500.22610	173.59761	567.64691	506.05069	
881	8.800	-70.85861	1.84862	-238.77876	319.98718	6.77870	-275.70660	-75.05080	34.85674	332.80551	277.17838	26.89695	395.37662	190.92586	1124.54919	-518.67938	47.39510	498.65677	-442.14752	204.94023	489.28555	-435.83578	23.88147	586.04688	498.67740	174.71321	567.53082	504.23721	
882	8.810	-70.72742	1.95531	-238.82433	320.96313	5.98414	-277.88333	-75.33818	29.48412	330.89377	277.76276	26.73865	395.28729	191.71550	1124.27759	-520.45825	48.30285	498.36432	-443.21542	205.55313	489.30515	-437.66684	25.32133	585.86035	497.08591	177.38678	567.23804	502.49136	
883	8.820	-70.46468	1.96909	-238.95200	321.43030	4.07216	-277.98627	-75.47635	28.14522	329.59637	277.97650	26.93789	395.24976	191.99333	1124.02136	-522.84460	48.58191	498.93442	-444.99503	206.25000	490.09399	-439.09494	26.86221	585.60443	495.57330	178.26898	567.24951	500.93512	
884	8.830	-70.23042	2.17762	-239.00500	321.76950	3.97300	-277.95831	-76.30865	28.47087	328.72385	278.34277	28.00231	395.61957	192.35724	1123.99902	-525.05444	48.68946	499.64590	-446.74701	206.45612	490.52911	-440.94016	28.59854	586.77820	494.11288	180.01894	568.04822	499.40100	
885	8.840	-69.61125	2.44711	-239.41983	321.83881	3.91290	-277.72858	-75.63580	28.32984	329.53723	278.33743	28.58729	394.61557	192.58398	1124.51794	-527.08594	49.62255	499.61130	-447.39474	207.12122	490.42697	-442.07349	30.74272	589.03241	493.09543	181.47427	569.92719	497.81061	
886	8.850	-67.90710	5.49118	-238.29076	321.97403	2.78635	-278.39047	-75.15215	27.74146	329.63803	276.52597	30.23122	395.19113	193.07619	1125.29956	-529.31335	49.79181	499.78052	-448.50674	207.28557	490.80389	-443.38739	32.47328	590.44812	491.74988	183.52512	571.86273	496.67892	
887	8.860	-65.62229	9.68157	-235.39897	322.19489	2.76878	-278.30606	-74.01027	27.78538	329.71356	275.16953	34.15288	398.68518	193.52251	1125.54187	-531.50903	49.89048	500.13766	-449.53561	207.85170	490.95459	-444.55289	33.82747	592.02319	490.67673	185.16925	573.07428	495.31628	
888	8.870	-61.46433	14.55435	-233.88535	322.36581	2.68730	-278.40405	-73.83748	27.58120	329.44415	272.31870	44.71027	397.33426	193.96788	1125.04272	-533.62018	50.27677	500.70605	-450.88275	208.31757	491.09329	-445.87399	35.64293	592.41534	489.62665	186.58215	573.80255	493.96536	
889	8.880	-60.15729	25.92447	-235.40410	322.53516	2.55946	-278.50977	-73.66642	27.61030	329.52332	270.37494	52.21973	397.58948	194.38863	1124.21619	-535.56824	51.34509	500.56329	-451.05792	209.59360	491.08417	-447.05820	36.74876	592.91296	488.61115	188.32738	574.05450	493.22708	
